<?xml version="1.0"?>
<svg id="Layer_2" data-name="Layer 2" xmlns="http://www.w3.org/2000/svg" xmlns:xlink="http://www.w3.org/1999/xlink" viewBox="0 0 225.03 38.33">
  <defs>
    
    <linearGradient id="New_Gradient_Swatch_1" data-name="New Gradient Swatch 1" x1="55.2" y1="19.15" x2="280.95" y2="19.15" gradientUnits="userSpaceOnUse">
      <stop offset="0" stop-color="#ec6e5a"></stop>
      <stop offset=".83" stop-color="#a330ec"></stop>
    </linearGradient>
    <linearGradient id="New_Gradient_Swatch_1-2" data-name="New Gradient Swatch 1" x2="280.95" xlink:href="#New_Gradient_Swatch_1"></linearGradient>
    <linearGradient id="New_Gradient_Swatch_1-3" data-name="New Gradient Swatch 1" x1="55.2" x2="280.95" xlink:href="#New_Gradient_Swatch_1"></linearGradient>
    <linearGradient id="New_Gradient_Swatch_1-4" data-name="New Gradient Swatch 1" x1="55.2" x2="280.95" xlink:href="#New_Gradient_Swatch_1"></linearGradient>
    <linearGradient id="New_Gradient_Swatch_1-5" data-name="New Gradient Swatch 1" x1="55.2" x2="280.95" xlink:href="#New_Gradient_Swatch_1"></linearGradient>
    <linearGradient id="New_Gradient_Swatch_1-6" data-name="New Gradient Swatch 1" x1="55.2" x2="280.95" xlink:href="#New_Gradient_Swatch_1"></linearGradient>
    <linearGradient id="New_Gradient_Swatch_1-7" data-name="New Gradient Swatch 1" y1="19.23" x2="280.95" y2="19.23" xlink:href="#New_Gradient_Swatch_1"></linearGradient>
    <linearGradient id="New_Gradient_Swatch_1-8" data-name="New Gradient Swatch 1" x1="55.2" x2="280.95" xlink:href="#New_Gradient_Swatch_1"></linearGradient>
    <linearGradient id="New_Gradient_Swatch_1-9" data-name="New Gradient Swatch 1" x1="55.2" x2="280.95" xlink:href="#New_Gradient_Swatch_1"></linearGradient>
    <linearGradient id="New_Gradient_Swatch_1-10" data-name="New Gradient Swatch 1" x1="55.2" x2="280.95" xlink:href="#New_Gradient_Swatch_1"></linearGradient>
    <linearGradient id="New_Gradient_Swatch_1-11" data-name="New Gradient Swatch 1" x1="55.2" x2="280.95" xlink:href="#New_Gradient_Swatch_1"></linearGradient>
    <linearGradient id="New_Gradient_Swatch_1-12" data-name="New Gradient Swatch 1" x1="55.2" x2="280.95" xlink:href="#New_Gradient_Swatch_1"></linearGradient>
    <linearGradient id="New_Gradient_Swatch_2" data-name="New Gradient Swatch 2" x1="6.9" y1="26.43" x2="29.49" y2="26.43" gradientUnits="userSpaceOnUse">
      <stop offset="0" stop-color="#ea6e5a"></stop>
      <stop offset=".83" stop-color="#a130ea"></stop>
    </linearGradient>
  </defs>
  <g id="Layer_1-2" data-name="Layer 1">
    <g>
      <g>
        <path class="cls-12" d="M67.76,20.78l3.17,8.39c.22.58.06,1.57-.99,1.57h-1.95c-.58,0-.93-.26-1.09-.74l-3.14-8.58h-1.06v8.2c0,.7-.42,1.12-1.12,1.12h-1.82c-.7,0-1.12-.42-1.12-1.12V8.65c0-.7.42-1.09,1.12-1.09h4.55c4.13,0,5.99,1.66,5.99,5.09v3.65c0,2.27-.74,3.78-2.53,4.48ZM64.3,18.28c1.41,0,1.95-.8,1.95-1.98v-3.65c0-1.15-.54-1.95-1.95-1.95h-1.6v7.59h1.6Z"></path>
        <path class="cls-1" d="M84.59,12.36v13.57c0,3.33-1.86,4.96-5.89,4.96s-5.86-1.63-5.86-4.96v-13.57c0-3.33,1.82-4.96,5.86-4.96s5.89,1.63,5.89,4.96ZM76.91,12.36v13.57c0,1.09.48,1.82,1.79,1.82s1.82-.74,1.82-1.82v-13.57c0-1.09-.51-1.82-1.82-1.82s-1.79.74-1.79,1.82Z"></path>
        <path class="cls-3" d="M91.22,27.6h4.83c.7,0,1.12.38,1.12,1.09v.93c0,.7-.42,1.12-1.12,1.12h-7.78c-.7,0-1.12-.42-1.12-1.12V8.65c0-.7.42-1.09,1.12-1.09h1.82c.7,0,1.12.38,1.12,1.09v18.95Z"></path>
        <path class="cls-7" d="M102.68,27.6h4.83c.7,0,1.12.38,1.12,1.09v.93c0,.7-.42,1.12-1.12,1.12h-7.78c-.7,0-1.12-.42-1.12-1.12V8.65c0-.7.42-1.09,1.12-1.09h1.82c.7,0,1.12.38,1.12,1.09v18.95Z"></path>
        <path class="cls-6" d="M118.97,7.56c.7,0,1.12.38,1.12,1.09v.93c0,.7-.42,1.12-1.12,1.12h-4.83v6.88h3.62c.7,0,1.12.38,1.12,1.09v.93c0,.7-.42,1.12-1.12,1.12h-3.62v6.88h4.83c.7,0,1.12.38,1.12,1.09v.93c0,.7-.42,1.12-1.12,1.12h-7.78c-.7,0-1.12-.42-1.12-1.12V8.65c0-.7.42-1.09,1.12-1.09h7.78Z"></path>
        <path class="cls-2" d="M122.81,30.73c-.7,0-1.12-.42-1.12-1.12V8.65c0-.7.42-1.09,1.12-1.09h4.55c4.13,0,5.99,1.66,5.99,5.09v12.96c0,3.46-1.86,5.12-5.99,5.12h-4.55ZM127.36,27.6c1.41,0,1.95-.8,1.95-1.98v-12.96c0-1.15-.54-1.95-1.95-1.95h-1.6v16.9h1.6Z"></path>
        <path class="cls-8" d="M142.89,8.65c0-.7.42-1.09,1.12-1.09h1.82c.7,0,1.12.38,1.12,1.09v17.29c0,1.09.48,1.82,1.79,1.82s1.82-.74,1.82-1.82V8.65c0-.7.42-1.09,1.12-1.09h1.82c.7,0,1.12.38,1.12,1.09v17.29c0,3.33-1.86,4.96-5.89,4.96s-5.86-1.63-5.86-4.96V8.65Z"></path>
        <path class="cls-5" d="M161.26,22.28v7.33c0,.7-.42,1.12-1.12,1.12h-1.82c-.7,0-1.12-.42-1.12-1.12V8.65c0-.7.42-1.09,1.12-1.09h4.29c4.16,0,6.02,1.66,6.02,5.09v4.51c0,3.46-1.86,5.12-6.02,5.12h-1.34ZM162.6,19.15c1.44,0,1.95-.8,1.95-1.98v-4.51c0-1.15-.51-1.95-1.95-1.95h-1.34v8.45h1.34Z"></path>
        <path class="cls-4" d="M184.66,10.69v18.92c0,.7-.42,1.12-1.12,1.12h-1.82c-.7,0-1.12-.42-1.12-1.12V10.69h-3.23c-.7,0-1.12-.42-1.12-1.12v-.93c0-.7.42-1.09,1.12-1.09h10.53c.7,0,1.12.38,1.12,1.09v.93c0,.7-.42,1.12-1.12,1.12h-3.23Z"></path>
        <path class="cls-13" d="M199.19,7.56c.7,0,1.12.38,1.12,1.09v.93c0,.7-.42,1.12-1.12,1.12h-4.83v6.88h3.62c.7,0,1.12.38,1.12,1.09v.93c0,.7-.42,1.12-1.12,1.12h-3.62v6.88h4.83c.7,0,1.12.38,1.12,1.09v.93c0,.7-.42,1.12-1.12,1.12h-7.78c-.7,0-1.12-.42-1.12-1.12V8.65c0-.7.42-1.09,1.12-1.09h7.78Z"></path>
        <path class="cls-14" d="M210.81,7.56c.7,0,1.12.38,1.12,1.09v.93c0,.7-.42,1.12-1.12,1.12h-4.83v6.88h3.62c.7,0,1.12.38,1.12,1.09v.93c0,.7-.42,1.12-1.12,1.12h-3.62v6.88h4.83c.7,0,1.12.38,1.12,1.09v.93c0,.7-.42,1.12-1.12,1.12h-7.78c-.7,0-1.12-.42-1.12-1.12V8.65c0-.7.42-1.09,1.12-1.09h7.78Z"></path>
        <path class="cls-15" d="M218.98,16.26l3.59,3.27c2.02,1.79,2.46,3.3,2.46,6.4,0,3.33-1.82,4.96-5.86,4.96s-5.86-1.63-5.86-4.96v-2.53c0-.7.38-1.12,1.09-1.12h1.86c.7,0,1.09.42,1.09,1.12v2.53c0,1.09.51,1.82,1.82,1.82s1.82-.74,1.82-1.82c0-1.79-.26-2.66-1.63-3.91l-3.62-3.27c-2.02-1.79-2.43-3.3-2.43-6.4,0-3.33,1.82-4.96,5.86-4.96s5.86,1.63,5.86,4.96v2.53c0,.7-.38,1.09-1.09,1.09h-1.86c-.7,0-1.09-.38-1.09-1.09v-2.53c0-1.09-.51-1.82-1.82-1.82s-1.82.74-1.82,1.82c0,1.79.26,2.66,1.63,3.91Z"></path>
      </g>
      <g>
        <path class="cls-10" d="M44.92,15.29c-.3-.37-.72-.57-1.21-.57h-.12c-.1,0-.2,0-.3,0-.01-.24-.13-.47-.33-.62C30.5,5,24,.31,23.64.17c-.2-.08-.53-.17-.93-.17-.8,0-1.48.38-1.92,1.07-.55.87-1.2,2.51-1.38,2.99-.06.14-.08.29-.07.45.01.23.07,1.42-.36,2.37-.36.79-1.14,1.88-1.76,2.64-.13.16-.21.36-.23.58l-.15,1.8c-.02.26.08.52.29.7h.01c-.47.19-.85.57-1.01,1.07l-.12.38c-.06.17-.08.35-.08.52-.03,0-.07,0-.12,0-.24-.02-.47-.02-.71-.02-5.16,0-9.95,2.34-13.14,6.44,0,0-.03.03-.03.04-.55.71-1.05,1.46-1.49,2.28-.01.02-.03.05-.04.07,0,0-.03.08-.04.09-.42.96-.45,1.7-.1,2.25.48.74,1.47.82,2.17.82.4,0,.83-.03,1.21-.06h.11c.43,0,.78.36.78.8,0,.14-.03.27-.07.35l-.07.12-2.54,3.99-.07.12c-.18.28-.31.6-.39.97-.09.43-.11.93-.07,1.41,0,0,0,.03,0,.04,0-.02,0-.04,0-.04,0,.03,0,.1.01.12v.06c.22,1.47,1.49,2.58,2.97,2.58.1,0,.2,0,.31-.02.61-.06,1.17-.31,1.64-.71.15-.13.31-.28.49-.44.67-.61,1.58-1.45,3.12-2.47.81-.54,1.71-.99,2.58-1.28,0,0,.18-.06.21-.07.03-.01.06-.02.09-.03l.07-.02c.24-.06.5-.09.77-.09,1.55,0,2.85,1.1,3.1,2.63,0,0,.01.09.01.09,0,.03,0,.06.01.09,0,.02,0,.04,0,.06.12.85.36,2.07,1.01,2.85.04.05.08.09.13.14.4.4.92.62,1.48.62.35,0,.69-.09,1.02-.27.06-.03.11-.07.17-.11.05-.04.11-.08.17-.13.47-.38.89-.93,1.38-1.57.11-.15.38-.49.39-.5.23-.3.44-.55.64-.77,1.08-1.17,2.44-2.06,3.94-2.55,0,0,0,0,.01,0,.97-.27,1.95-.41,2.91-.41.38,0,.76.02,1.14.07.42.05.83.12,1.23.22.02,0,.03,0,.05,0,.02,0,.03,0,.05.01.01,0,.18.05.25.07.26.08.64.2,1.04.4.09.04.18.06.27.06.21,0,.42-.1.54-.29.01-.02.01-.04.02-.05.19.07.39.11.6.11h.45c.53,0,1.01-.32,1.22-.81.3-.7,1.38-3.06,2.77-4.08.13-.1.22-.24.26-.39.18-.59,1.77-4.44,2.97-5.18.24-.15.42-.32.54-.53.85-1.49,1.89-3.41,2.02-4.07.13-.65.09-1.64-.43-2.28Z"></path>
        <path class="cls-9" d="M35.12,31.97h.45c.27,0,.52-.16.62-.41.4-.94,1.5-3.26,2.97-4.35.02-.01.03-.03.03-.05.06-.23,1.72-4.62,3.26-5.56.13-.08.24-.17.31-.3.41-.72,1.82-3.22,1.95-3.87.15-.76,0-2.07-1-2.07s-1.91-.05-2.96,2.48c-.88,2.12-1.12,3.06-1.17,3.31l-.02.12c-.02.29-.17,1.93-.85,2.99-.48.75-.98,1.38-1.27,1.74-.16.2-.24.45-.23.71.02.36,0,.9-.26,1.35h0c-.33.56-1.06.67-1.53.25l-17.03-14.9c-.55-.48-1.42-.24-1.64.46l-.12.38c-.12.38-.02.8.28,1.07l17.45,16.35c.21.2.49.31.79.31Z"></path>
        <path class="cls-9" d="M17.54,12.1l18.44,15.87c.08.07.21.05.26-.05.12-.23.3-.41.31-1.1,0-.47.18-.82.27-.99.04-.07.03-.16-.04-.22l-10.01-8.52,10.22,8.02c.05.04.12.05.18.02.27-.13,1.11-.75,1.43-2.23.3-1.34.27-1.75.29-1.95,0-.06-.02-.12-.06-.15l-14.95-11.94,15.13,11.1c.1.07.24.02.27-.09.19-.74.78-2.94,1.47-3.75s1.09-1.05,1.75-1.17c.15-.03.2-.22.07-.31C40.02,12.76,23.85.96,23.4.78c-.49-.19-1.47-.3-2.07.64-.53.83-1.17,2.48-1.32,2.87-.02.06-.03.11-.03.17.02.33.07,1.61-.42,2.68s-1.55,2.42-1.84,2.79c-.05.06-.08.14-.09.22l-.15,1.8c0,.06.02.11.06.15Z"></path>
        <path class="cls-11" d="M33.96,32.21s-.44-.23-1.13-.43c-.07-.02-.14-.04-.22-.06-.05-.02-.1-.03-.15-.04-.38-.09-.82-.18-1.32-.23-1.16-.14-2.63-.1-4.31.37,0,0-.02,0-.03,0-1.64.53-3.08,1.48-4.22,2.73-.24.27-.46.55-.67.82-.01.02-.03.03-.04.05-.61.78-1.11,1.49-1.62,1.91-.04.03-.09.07-.13.1-.04.03-.08.06-.13.08-.2.11-.44.18-.69.18-.4,0-.76-.16-1.02-.43-.03-.03-.06-.07-.09-.1-.49-.59-.72-1.57-.86-2.52,0-.07-.02-.14-.03-.21h0c-.29-1.82-1.86-3.21-3.75-3.21-.32,0-.63.04-.93.12-.03,0-.06.02-.09.03-.05.01-.09.03-.14.04s-.09.03-.14.05c-.02,0-.03,0-.05.02-.9.3-1.83.75-2.74,1.35-1.98,1.32-2.95,2.33-3.67,2.96-.35.3-.79.5-1.28.56-1.26.13-2.38-.76-2.56-2.01,0-.03,0-.06-.01-.09,0-.02,0-.04,0-.06-.04-.44-.01-.87.06-1.23.06-.26.16-.52.3-.74l.08-.13,2.54-3.98.08-.13c.11-.21.17-.44.17-.69,0-.8-.65-1.46-1.45-1.46-.05,0-.1,0-.15,0-1.76.14-3.65.22-2.63-2.1,0-.02.02-.04.03-.06,0,0,0-.01.01-.02.42-.78.91-1.52,1.45-2.21,0-.01.02-.03.03-.04,2.94-3.76,7.5-6.18,12.63-6.18.23,0,.46,0,.69.02.13,0,.19,0,.19,0l15.07,14.23,2.92,2.76Z"></path>
      </g>
    </g>
  </g>
</svg>